{
    "asset": {
        "version": "2.0",
        "generator": "Open Asset Import Library (assimp v5.0.5eb040c7)"
    },
    "accessors": [
        {
            "bufferView": 0,
            "byteOffset": 0,
            "componentType": 5126,
            "count": 19920,
            "type": "VEC3",
            "max": [
                2.219557285308838,
                4.63353967666626,
                0.9716594219207764
            ],
            "min": [
                -1.3163905143737794,
                -0.0063135502859950069,
                -0.6859008073806763
            ]
        },
        {
            "bufferView": 1,
            "byteOffset": 0,
            "componentType": 5125,
            "count": 114546,
            "type": "SCALAR",
            "max": [
                19919
            ],
            "min": [
                0
            ]
        }
    ],
    "buffers": [
        {
            "byteLength": 697224,
            "uri": "result.bin"
        }
    ],
    "bufferViews": [
        {
            "buffer": 0,
            "byteOffset": 0,
            "byteLength": 239040,
            "target": 34962
        },
        {
            "buffer": 0,
            "byteOffset": 239040,
            "byteLength": 458184,
            "target": 34963
        }
    ],
    "images": [
        {
            "uri": "textures\\5.png"
        }
    ],
    "materials": [
        {
            "name": "Material_51",
            "pbrMetallicRoughness": {
                "baseColorTexture": {
                    "index": 0
                },
                "metallicFactor": 0.0,
                "roughnessFactor": 5.960464477539063e-8
            }
        }
    ],
    "meshes": [
        {
            "name": "mesh_id35",
            "primitives": [
                {
                    "mode": 4,
                    "material": 0,
                    "indices": 1,
                    "attributes": {
                        "POSITION": 0
                    }
                }
            ]
        }
    ],
    "nodes": [
        {
            "name": "RootNode",
            "children": [
                1
            ]
        },
        {
            "name": "root",
            "children": [
                2
            ]
        },
        {
            "name": "node_id34",
            "matrix": [
                0.11034834384918213,
                0.0,
                0.0,
                0.0,
                0.0,
                0.11034834384918213,
                0.0,
                0.0,
                0.0,
                0.0,
                0.11034834384918213,
                0.0,
                -0.11698675155639649,
                -0.08932994306087494,
                0.24023449420928956,
                1.0
            ],
            "mesh": 0
        }
    ],
    "samplers": [
        {}
    ],
    "scenes": [
        {
            "nodes": [
                0
            ]
        }
    ],
    "textures": [
        {
            "source": 0,
            "sampler": 0
        }
    ],
    "scene": 0
}